<svg xmlns="http://www.w3.org/2000/svg">
  <defs>
    <!-- Icons are from Lucide (https://lucide.dev), ISC licensed. Each <symbol>
     id matches its Lucide icon name and is referenced via <use href="/icons.svg#id">
     by the Icon component in src/ui/templates/components/actions.tsx. -->
    <symbol id="plus" viewBox="0 0 24 24">
      <path
        fill="none"
        stroke="currentColor"
        stroke-linecap="round"
        stroke-linejoin="round"
        stroke-width="2"
        d="M5 12h14m-7-7v14"
      />
    </symbol>
    <symbol id="book-open" viewBox="0 0 24 24">
      <path
        fill="none"
        stroke="currentColor"
        stroke-linecap="round"
        stroke-linejoin="round"
        stroke-width="2"
        d="M12 7v14m-9-3a1 1 0 0 1-1-1V4a1 1 0 0 1 1-1h5a4 4 0 0 1 4 4a4 4 0 0 1 4-4h5a1 1 0 0 1 1 1v13a1 1 0 0 1-1 1h-6a3 3 0 0 0-3 3a3 3 0 0 0-3-3z"
      />
    </symbol>
    <symbol id="user-plus" viewBox="0 0 24 24">
      <g
        fill="none"
        stroke="currentColor"
        stroke-linecap="round"
        stroke-linejoin="round"
        stroke-width="2"
      >
        <path d="M16 21v-2a4 4 0 0 0-4-4H6a4 4 0 0 0-4 4v2" />
        <circle cx="9" cy="7" r="4" />
        <path d="M19 8v6m3-3h-6" />
      </g>
    </symbol>
    <symbol id="arrow-right" viewBox="0 0 24 24">
      <path
        fill="none"
        stroke="currentColor"
        stroke-linecap="round"
        stroke-linejoin="round"
        stroke-width="2"
        d="M5 12h14m-7-7l7 7l-7 7"
      />
    </symbol>
    <symbol id="arrow-left" viewBox="0 0 24 24">
      <path
        fill="none"
        stroke="currentColor"
        stroke-linecap="round"
        stroke-linejoin="round"
        stroke-width="2"
        d="M19 12H5m7 7l-7-7l7-7"
      />
    </symbol>
    <symbol id="credit-card" viewBox="0 0 24 24">
      <g
        fill="none"
        stroke="currentColor"
        stroke-linecap="round"
        stroke-linejoin="round"
        stroke-width="2"
      >
        <rect width="20" height="14" x="2" y="5" rx="2" />
        <path d="M2 10h20" />
      </g>
    </symbol>
    <symbol id="hammer" viewBox="0 0 24 24">
      <g
        fill="none"
        stroke="currentColor"
        stroke-linecap="round"
        stroke-linejoin="round"
        stroke-width="2"
      >
        <path d="m15 12l-9.373 9.373a1 1 0 0 1-3.001-3L12 9m6 6l4-4" />
        <path
          d="m21.5 11.5l-1.914-1.914A2 2 0 0 1 19 8.172v-.344a2 2 0 0 0-.586-1.414l-1.657-1.657A6 6 0 0 0 12.516 3H9l1.243 1.243A6 6 0 0 1 12 8.485V10l2 2h1.172a2 2 0 0 1 1.414.586L18.5 14.5"
        />
      </g>
    </symbol>
    <symbol id="rotate-ccw" viewBox="0 0 24 24">
      <g
        fill="none"
        stroke="currentColor"
        stroke-linecap="round"
        stroke-linejoin="round"
        stroke-width="2"
      >
        <path d="M3 12a9 9 0 1 0 9-9a9.75 9.75 0 0 0-6.74 2.74L3 8" />
        <path d="M3 3v5h5" />
      </g>
    </symbol>
    <symbol id="save" viewBox="0 0 24 24">
      <g
        fill="none"
        stroke="currentColor"
        stroke-linecap="round"
        stroke-linejoin="round"
        stroke-width="2"
      >
        <path
          d="M15.2 3a2 2 0 0 1 1.4.6l3.8 3.8a2 2 0 0 1 .6 1.4V19a2 2 0 0 1-2 2H5a2 2 0 0 1-2-2V5a2 2 0 0 1 2-2z"
        />
        <path d="M17 21v-7a1 1 0 0 0-1-1H8a1 1 0 0 0-1 1v7" />
        <path d="M7 3v4a1 1 0 0 0 1 1h7" />
      </g>
    </symbol>
    <symbol id="check" viewBox="0 0 24 24">
      <path
        fill="none"
        stroke="currentColor"
        stroke-linecap="round"
        stroke-linejoin="round"
        stroke-width="2"
        d="M20 6L9 17l-5-5"
      />
    </symbol>
    <symbol id="search" viewBox="0 0 24 24">
      <g
        fill="none"
        stroke="currentColor"
        stroke-linecap="round"
        stroke-linejoin="round"
        stroke-width="2"
      >
        <circle cx="11" cy="11" r="8" />
        <path d="m21 21l-4.3-4.3" />
      </g>
    </symbol>
    <symbol id="trash-2" viewBox="0 0 24 24">
      <g
        fill="none"
        stroke="currentColor"
        stroke-linecap="round"
        stroke-linejoin="round"
        stroke-width="2"
      >
        <path d="M3 6h18" />
        <path
          d="M19 6v14a2 2 0 0 1-2 2H7a2 2 0 0 1-2-2V6m3 0V4a2 2 0 0 1 2-2h4a2 2 0 0 1 2 2v2"
        />
        <path d="M10 11v6m4-6v6" />
      </g>
    </symbol>
    <symbol id="log-in" viewBox="0 0 24 24">
      <g
        fill="none"
        stroke="currentColor"
        stroke-linecap="round"
        stroke-linejoin="round"
        stroke-width="2"
      >
        <path d="M15 3h4a2 2 0 0 1 2 2v14a2 2 0 0 1-2 2h-4" />
        <path d="m10 17l5-5l-5-5" />
        <path d="M15 12H3" />
      </g>
    </symbol>
    <symbol id="log-out" viewBox="0 0 24 24">
      <g
        fill="none"
        stroke="currentColor"
        stroke-linecap="round"
        stroke-linejoin="round"
        stroke-width="2"
      >
        <path d="M9 21H5a2 2 0 0 1-2-2V5a2 2 0 0 1 2-2h4" />
        <path d="m16 17l5-5l-5-5" />
        <path d="M21 12H9" />
      </g>
    </symbol>
    <symbol id="x" viewBox="0 0 24 24">
      <path
        fill="none"
        stroke="currentColor"
        stroke-linecap="round"
        stroke-linejoin="round"
        stroke-width="2"
        d="M18 6L6 18M6 6l12 12"
      />
    </symbol>
  </defs>
</svg>
